<?xml version="1.0" encoding="utf-8"?>
<!-- Generator: Adobe Illustrator 25.4.1, SVG Export Plug-In . SVG Version: 6.00 Build 0)  -->
<svg version="1.1" id="Layer_2" xmlns="http://www.w3.org/2000/svg" xmlns:xlink="http://www.w3.org/1999/xlink" x="0px" y="0px"
	 viewBox="0 0 276.62 160" style="enable-background:new 0 0 276.62 160;" xml:space="preserve">
<style type="text/css">
	.st0{fill:none;stroke:#000000;stroke-width:7;stroke-linecap:round;stroke-linejoin:round;stroke-miterlimit:10;}
</style>
<path class="st0" d="M68.18,13.68c0,0,11.23,6.13,25.53-2.72s29.62-0.63,37.45,4.79s35.06-0.32,40.17,0s49.7-3.09,65.02,38.44
	s27.23,70.13,36.77,76.94c0,0-1.7,15.32-7.83,23.49h-9.53l-0.68-11.91c0,0-23.15,2.04-60.26-30.64
	c-17.02-11.73-45.28-8.17-45.28-8.17s-2.04,21.45-8.51,32.68c-2.27,10.55,0.57,16.68-2.27,18.04s-24.29,1.36-24.29,1.36l-3.74-35.74
	c0,0,1.02-7.83-10.55-14.3c-11.57-6.47-19.74-20.09-22.13-22.47c-2.38-2.38-18.72-10.89-18.72-10.89H42.65c0,0-8.51-7.83-16.34-7.83
	s-12.6,1.36-17.02,0c-4.43-1.36-5.79-14.3-5.79-14.3l9.53-7.15c0,0,4.43-7.15,6.47-17.02s17.7-14.98,20.43-16
	S44.69-6.41,68.18,13.68z"/>
<path class="st0" d="M59.33,72.57c0,0-2.72,22.13-3.06,33.36c0,0-17.7,29.62-23.15,43.23l-3.06,6.81h14.64
	c0,0,17.02-13.96,33.02-19.74s17.92-33.31,17.92-33.31s-9.75-7.54-17.58-19.46C72.41,79.74,59.33,72.57,59.33,72.57z"/>
<path class="st0" d="M148.04,114.27c0,0,17.16,32.17,19.89,41.7c0,0,12.6,2.38,18.72-3.06c2.72-5.45,4.1-23.77,15.5-34.69
	c0,0-15.5-18.41-52.6-14.33L148.04,114.27z"/>
<path class="st0" d="M149.54,103.89c0,0-2.83-15.66-10.78-25.53"/>
<path class="st0" d="M59.33,72.57c0,0,10.89-5.11,12.26-23.49"/>
<path class="st0" d="M60.82,8.04c0,0-0.13,10.4-3.87,16.87"/>
<line class="st0" x1="39.93" y1="10.27" x2="42.65" y2="16.48"/>
<line class="st0" x1="140.69" y1="155.98" x2="105.59" y2="156.31"/>
<line class="st0" x1="179.84" y1="156.5" x2="156.35" y2="156.5"/>
<line class="st0" x1="265.29" y1="156.31" x2="248.95" y2="156.31"/>
<line class="st0" x1="44.69" y1="155.98" x2="20.18" y2="155.98"/>
</svg>
